<?xml version="1.0" encoding="UTF-8"?><svg id="Calque_1" xmlns="http://www.w3.org/2000/svg" viewBox="0 0 1361.08 343.04"><defs><style>.cls-1,.cls-2{fill:#72b627;}.cls-3,.cls-4{fill:#333;}.cls-4,.cls-2{fill-rule:evenodd;}</style></defs><g><g><path class="cls-1" d="M1096.54,255.24c-2.27-2.31-3.4-5.15-3.4-8.52s1.13-6.21,3.4-8.52c2.27-2.31,4.99-3.47,8.16-3.47s5.9,1.16,8.16,3.47c2.27,2.31,3.4,5.15,3.4,8.52s-1.14,6.21-3.4,8.52c-2.27,2.31-4.99,3.47-8.16,3.47s-5.9-1.16-8.16-3.47Zm17.01,16.32v70.04h-17.69v-70.04h17.69Z"/><g><polygon class="cls-1" points="927.45 297.55 927.45 278.06 927.45 240.51 909.76 240.51 909.76 341.6 927.45 341.6 927.45 297.55"/><path class="cls-1" d="M968.27,282.82c-5.9-7.51-13.52-11.26-22.86-11.26-4.84,0-9.28,1.17-13.36,3.42v17.97c.64-.47,1.27-.94,2-1.38,2.95-1.78,6.1-2.67,9.46-2.67,4.17,0,7.48,1.3,9.93,3.9,2.63,2.79,3.95,7.17,3.95,13.14v35.67h17.69v-34.23c0-10.69-2.27-18.87-6.8-24.55Z"/></g><path class="cls-1" d="M1084.46,281.38c-5.9-7.51-13.52-11.26-22.86-11.26-6.99,0-13.2,2.36-18.64,7.08v-5.63h-17.01v32.72h17.69v-8.17c1.45-2.21,3.65-4.21,6.6-5.99,2.95-1.78,6.1-2.67,9.46-2.67,4.17,0,7.49,1.3,9.93,3.9,2.63,2.79,3.95,7.17,3.95,13.14v37.11h17.69v-35.67c0-10.69-2.27-18.87-6.8-24.55Z"/><path class="cls-1" d="M1025.95,308.88v8.17c-4.27,5.78-9.39,8.67-15.38,8.67-4.17,0-7.48-1.44-9.93-4.33-2.18-2.6-3.27-6.59-3.27-11.99v-37.84h-17.69v37.11c0,9.63,2.22,17.33,6.67,23.11,5.72,7.51,13.2,11.26,22.45,11.26,6.89,0,12.83-2.36,17.82-7.08v5.63h17.01v-32.72h-17.69Z"/><polygon class="cls-1" points="1164.24 271.56 1139.34 271.56 1118.15 296.64 1118.15 315.55 1139.34 341.6 1164.24 341.6 1132.76 306.37 1164.24 271.56"/></g><g><path class="cls-3" d="M1209.83,289.78v32.74c0,5.62-.99,9.91-2.96,12.86-1.48,2.19-3.49,3.9-6.03,5.11-2.54,1.21-5.35,1.82-8.45,1.82s-6.07-.67-8.92-2c-2.85-1.33-5.11-3.05-6.77-5.15l5.52-6.08c2.92,3.33,6.31,5,10.17,5,2.96,0,5.19-.93,6.67-2.79,1.35-1.57,2.02-4.29,2.02-8.15v-1.14c-2.56,2.1-5.48,3.14-8.75,3.14-2.38,0-4.67-.52-6.87-1.57-2.2-1.05-4.04-2.48-5.52-4.29-2.74-3.38-4.11-7.43-4.11-12.15,0-5.1,1.56-9.39,4.68-12.87,3.12-3.48,6.9-5.22,11.35-5.22,3.68,0,6.87,1.17,9.56,3.5v-2.79h8.42Zm-8.76,22.51v-10.36c-2.02-2.86-4.71-4.29-8.08-4.29-2.47,0-4.49,.94-6.06,2.82-1.57,1.88-2.36,4.11-2.36,6.68,0,2.72,.82,4.97,2.46,6.75,1.64,1.79,3.69,2.68,6.16,2.68,3.37,0,5.99-1.43,7.88-4.29Z"/><path class="cls-3" d="M1240.81,289.35l-1.01,8.65c-.67-.24-1.73-.36-3.17-.36-1.75,0-3.36,.53-4.82,1.57-1.46,1.05-2.5,2.19-3.13,3.43v21.8h-8.75v-34.66h8.42v3.5c2.15-2.81,5.32-4.22,9.5-4.22,.72,0,1.71,.1,2.96,.29Z"/><path class="cls-3" d="M1248.82,319.94c-3.32-3.48-4.98-7.74-4.98-12.79s1.66-9.33,4.98-12.83c3.32-3.5,7.45-5.25,12.39-5.25s9.07,1.75,12.39,5.25c3.32,3.5,4.98,7.78,4.98,12.83s-1.66,9.32-4.98,12.79c-3.32,3.48-7.45,5.22-12.39,5.22s-9.07-1.74-12.39-5.22Zm6.2-19.55c-1.62,1.83-2.42,4.09-2.42,6.75s.81,4.91,2.42,6.72c1.62,1.81,3.68,2.72,6.2,2.72s4.58-.9,6.2-2.72c1.62-1.81,2.42-4.05,2.42-6.72s-.81-4.92-2.42-6.75c-1.62-1.83-3.68-2.75-6.2-2.75s-4.58,.92-6.2,2.75Z"/><path class="cls-3" d="M1308.22,289.78h8.75v34.66h-8.42v-2.79c-2.47,2.34-5.41,3.5-8.82,3.5-4.58,0-8.28-1.86-11.11-5.58-2.2-2.86-3.3-6.67-3.3-11.44v-18.37h8.75v18.73c0,2.67,.54,4.65,1.62,5.93,1.21,1.43,2.85,2.14,4.92,2.14,2.96,0,5.5-1.43,7.61-4.29v-22.51Z"/><path class="cls-3" d="M1327.07,341.6v-51.82h8.42v2.79c2.69-2.33,5.88-3.5,9.56-3.5,4.44,0,8.23,1.74,11.35,5.22,3.12,3.48,4.68,7.77,4.68,12.87,0,4.72-1.37,8.77-4.11,12.15-1.48,1.81-3.32,3.24-5.52,4.29-2.2,1.05-4.49,1.57-6.87,1.57-3.28,0-6.2-1.05-8.75-3.14v19.58h-8.75Zm8.75-39.67v10.36c1.89,2.86,4.51,4.29,7.88,4.29,2.47,0,4.52-.89,6.16-2.68,1.64-1.79,2.46-4.04,2.46-6.75,0-2.57-.79-4.8-2.36-6.68-1.57-1.88-3.59-2.82-6.06-2.82-3.37,0-6.06,1.43-8.08,4.29Z"/></g></g><g><path class="cls-2" d="M0,111.75L51.39,38.16h37.66c-17.64,25.5-33.89,49.04-50.82,73.52,16.43,23.82,32.78,47.51,50.22,72.76H50.64C34.37,161.1,17.41,136.74,0,111.75Z"/><path class="cls-4" d="M413.26,182.19h-32.97c-.36-5.12-.7-10.05-1.13-16.35-18.35,17.24-39.63,21.53-63.22,16.82-21.2-4.26-35.06-19.84-36.03-40.38-.97-20.61,10.19-35.68,32.29-41.18,10.07-2.51,20.82-2.83,31.3-3.31,11.66-.54,23.38-.13,34.94-.13,1.42-18.95-6.32-28.52-24.07-31.2-19.02-2.86-35.91,3.15-52.91,12.09-4.05-7.41-7.99-14.63-12.2-22.33,27.54-17.75,56.87-22.13,87.99-14.41,22.46,5.57,35.47,21.82,35.88,44.78,.55,31.42,.14,62.84,.14,95.6Zm-34.54-61.25c-17.09,0-34.01-.54-50.86,.25-7.6,.35-13.74,4.77-14.87,13.14-1.13,8.39,.56,15.93,8.84,20.22,15.04,7.76,29.73,5.28,43.87-2.54,12.74-7.06,15.6-18.1,13.02-31.07Z"/><path class="cls-4" d="M723.61,122.62c6.13,36.16,45.25,45.19,81.31,20.89,6.7,5.31,13.21,10.46,20.21,16-15.61,15.96-33.79,22.45-54.32,24.48-40.41,3.98-74.25-18.7-82.03-55.33-8.49-39.97,12.5-76.1,50.5-86.91,37.95-10.81,75.63,3.4,87.16,34.7,5.18,14.09,6.75,29.45,6.75,46.17h-109.58Zm-.39-22.1h77.42c.04-21.21-14.23-35.07-35.65-36.25-23.67-1.27-42.54,17.01-41.78,36.25Z"/><path class="cls-4" d="M545.21,52.63c-4.12,8.71-7.58,16.03-11.01,23.25-9.87-3.56-19.03-7.92-28.63-9.98-6.99-1.52-12.76-3.08-21.78,.61-5.53,2.22-6.88,6.07-7.85,9.57-1.31,4.8,1.06,9.1,5.24,11.57,6.67,4.01,14.21,6.49,21.45,9.48,7.94,3.28,16.2,5.82,23.84,9.73,14.51,7.48,21.45,20.26,20.41,37.34-1.01,16.54-9.32,28.11-23.78,33.96-29.79,11.99-57.4,6.39-84.24-12.91,3.55-7.82,6.85-15.07,9.8-21.56,11.8,4.8,22.83,10.11,34.35,13.64,6.19,1.88,13.37,1.97,19.85,.73,7.42-1.46,12.93-4.68,13.71-12.53,.7-7.12-4.89-11.42-9.82-14.15-5.71-3.15-12.29-5.25-18.57-7.63-6.98-2.67-14.2-4.77-20.93-7.98-14.21-6.77-21.87-18.41-21.5-35.3,.37-17.05,7.72-29.35,22.59-36,26.54-11.86,51.44-5.75,76.89,8.17Z"/><path class="cls-4" d="M1117.63,52.63c-4.12,8.71-7.58,16.03-11.01,23.25-9.87-3.56-19.03-7.92-28.63-9.98-6.99-1.52-12.76-3.08-21.78,.61-5.53,2.22-6.88,6.07-7.85,9.57-1.31,4.8,1.06,9.1,5.24,11.57,6.67,4.01,14.21,6.49,21.45,9.48,7.94,3.28,16.2,5.82,23.84,9.73,14.51,7.48,21.45,20.26,20.41,37.34-1.01,16.54-9.32,28.11-23.78,33.96-29.79,11.99-57.4,6.39-84.24-12.91,3.55-7.82,6.85-15.07,9.8-21.56,11.8,4.8,22.83,10.11,34.35,13.64,6.19,1.88,13.37,1.97,19.85,.73,7.42-1.46,12.93-4.68,13.71-12.53,.7-7.12-4.89-11.42-9.82-14.15-5.71-3.15-12.29-5.25-18.57-7.63-6.98-2.67-14.2-4.77-20.93-7.98-14.21-6.77-21.87-18.41-21.5-35.3,.37-17.05,7.72-29.35,22.59-36,26.54-11.86,51.44-5.75,76.89,8.17Z"/><path class="cls-4" d="M240.32,82.84c-22.98-21.59-54.08-19.69-69.36-1.27-14.39,17.36-13.05,47.42,2.81,63.1,16.28,16.09,47.75,14.6,67.34-5.34,6.49,5.31,13.11,10.75,19.67,16.09-17.26,24.77-52.19,35.04-84.71,25.5-29.85-8.78-47.93-33.45-48.82-66.69-.92-34.06,15.75-60.65,44.58-71.14,31.17-11.35,68.45-2.48,86.59,20.51-5.89,6.26-11.78,12.53-18.08,19.24Z"/><path class="cls-4" d="M591.62,0h32.73V44.65h40.36v25.41h-39.92c0,25.76-.48,50.05,.21,74.29,.32,11.2,6.72,16,17.55,14.88,5.69-.61,11.24-2.64,18.03-4.29,2.33,8.02,4.68,16.09,7.24,24.9-16.78,10.34-33.89,14.38-52.06,7.7-16.5-6.07-23.72-20.38-23.93-37.56-.6-49.52-.21-99.03-.21-149.97Z"/><rect class="cls-3" x="864.99" width="31.8" height="178.09"/><rect class="cls-3" x="947.67" y="38.16" width="31.8" height="146.28"/><rect class="cls-3" x="947.67" width="31.8" height="19.08"/><path class="cls-2" d="M1272.04,38.16h37.7c16.37,23.34,33.53,47.83,51.34,73.2-17.14,24.58-34.08,48.88-50.96,73.08h-37.94c17.53-25.28,34.09-49.13,50.98-73.49-16.86-23.98-33.2-47.25-51.13-72.79Z"/><path class="cls-2" d="M1203.82,184.45h-33.54c14.58-49.39,28.83-97.6,43.21-146.28h33.11c-14.46,49.45-28.5,97.47-42.78,146.28Z"/></g></svg>