<svg width="326" height="60" viewBox="0 0 326 60" fill="none" xmlns="http://www.w3.org/2000/svg">
<g clip-path="url(#clip0_1_2196)">
<path d="M51.3564 0L52.5109 5.29129L55.6373 5.1468L51.3564 0Z" fill="#8EC549"/>
<path d="M39.8125 0.0961914L50.8274 18.8073L50.7314 18.8664L50.5634 18.8445L49.18 19.04C42.4899 19.9854 17.3925 23.5319 10.7921 24.4769C7.979 24.8795 6.18208 25.2572 5.01835 25.766C2.98764 21.544 -1.10293 10.9858 4.79531 4.13672C4.79531 4.13672 -4.93632 9.89552 3.32724 27.1607C2.89556 27.9307 2.8021 28.9368 2.68594 30.3262C2.40051 33.7401 3.67394 54.5254 3.96446 59.0931C3.99663 59.6032 4.41889 59.9974 4.93 59.9964C5.84955 59.9941 7.01028 59.9893 7.97718 59.9853L8.9009 59.9816C9.2961 59.98 9.65504 59.7416 9.79444 59.3719C10.0155 58.7837 10.1687 57.8851 9.45285 57.2111C8.81869 56.6147 8.4383 56.4069 7.76176 56.341C7.22972 56.289 6.8483 55.8039 6.90855 55.2724L8.19474 43.5455C8.2024 43.5154 8.2361 43.5006 8.26163 43.5185C9.11228 44.1046 20.4194 51.7344 33.5483 52.2838C46.6752 52.8338 56.712 47.5705 57.4677 47.1631C57.4922 47.1498 57.5213 47.1631 57.5299 47.1896L60.2065 59.4455C60.2754 59.761 60.4679 59.9806 60.7906 59.9811L61.1904 59.9806C61.2402 59.9785 61.6197 59.9814 62.1221 59.9853C63.1242 59.9929 64.6154 60.0044 64.9545 59.9877C65.5049 59.9601 66.6737 57.4296 64.9152 56.5371C64.3331 56.2415 63.6744 56.1051 63.1679 56.0423C62.689 55.9826 62.3244 55.5869 62.3132 55.1049L61.5912 23.9111C61.5909 23.9029 61.8516 23.8309 62.0899 23.765C62.294 23.7087 62.4814 23.6567 62.4753 23.6531C63.6417 23.3234 65.3728 22.8324 67.9145 22.1088C67.9982 22.0853 68.0023 21.9699 67.9201 21.9418C63.8226 20.5417 61.698 16.6908 61.698 16.6908L64.2954 15.5364C66.4144 18.0153 70.8177 21.2372 76.4317 19.3495C82.0457 17.4613 86.2535 14.047 86.6763 10.073C86.8603 8.34558 86.7145 6.64496 86.4908 5.27435C86.9651 5.26151 87.6441 5.23898 88.5667 5.19945C90.4528 5.11877 90.413 2.4259 90.3762 1.77591C90.3716 1.69932 90.3022 1.64418 90.2266 1.6549L84.9961 2.37637C80.2605 3.03283 55.4733 6.46732 51.3564 7.00996C50.8845 7.07216 50.4486 7.15257 50.0461 7.24674C49.4082 6.99075 48.5717 6.55984 47.6139 5.83681C45.427 4.18555 39.8125 0.0961914 39.8125 0.0961914Z" fill="#8EC549"/>
<path fill-rule="evenodd" clip-rule="evenodd" d="M190.276 37.0618L203.817 52.2617H196.317L194.809 50.5967C194.618 50.7509 194.412 50.9076 194.176 51.0674C193.523 51.5101 192.743 51.8859 191.836 52.1959C190.929 52.5053 189.944 52.6605 188.882 52.6605C187.289 52.6605 185.9 52.3337 184.717 51.6812C183.533 51.0286 182.615 50.1494 181.962 49.0429C181.31 47.9365 180.983 46.7085 180.983 45.359C180.983 43.8543 181.37 42.5104 182.145 41.3258C182.727 40.4369 183.547 39.6756 184.603 39.0419C184.383 38.6835 184.192 38.3312 184.053 37.9906C183.71 37.1502 183.539 36.2321 183.539 35.2365C183.539 34.0197 183.854 32.8801 184.485 31.8175C185.115 30.7555 185.989 29.8931 187.107 29.2288C188.224 28.565 189.524 28.2336 191.006 28.2336C192.201 28.2336 193.247 28.394 194.143 28.7146C195.039 29.0353 195.796 29.4335 196.416 29.9094C197.035 30.3858 197.489 30.8555 197.777 31.3202L193.628 35.4688C193.23 34.9158 192.832 34.5446 192.433 34.3567C192.035 34.1688 191.615 34.0743 191.173 34.0743C190.685 34.0743 190.293 34.2132 189.994 34.4894C189.696 34.7662 189.546 35.0925 189.546 35.4688C189.546 35.7118 189.607 35.9661 189.728 36.2321C189.85 36.4971 190.033 36.7739 190.276 37.0618ZM188.982 46.8525C189.358 46.8525 189.723 46.758 190.077 46.5701C190.285 46.4593 190.495 46.2857 190.704 46.0631L187.948 43.0205C187.66 43.1742 187.432 43.3758 187.273 43.6327C187.041 44.009 186.924 44.4078 186.924 44.828C186.924 45.1594 187.002 45.4805 187.156 45.7904C187.311 46.1004 187.544 46.3541 187.854 46.5538C188.163 46.7524 188.539 46.8525 188.982 46.8525Z" fill="#8EC549"/>
<path d="M65.3349 8.84166C65.92 8.51233 66.5425 8.14674 67.1644 7.78065C66.0298 6.0242 64.4199 5.47531 62.9928 6.24375C61.6387 6.97544 61.1266 8.95144 61.8583 10.7079C62.1876 10.5981 62.5261 10.4975 62.8647 10.3969C63.2032 10.2963 63.5417 10.1958 63.871 10.086C63.8615 10.0192 63.8494 9.95253 63.8375 9.88649C63.8037 9.69891 63.7708 9.51669 63.798 9.3543C63.8033 9.29532 63.8078 9.23243 63.8125 9.16758C63.8398 8.7895 63.8718 8.34484 64.0906 8.21976C64.4801 7.98028 64.7468 8.27993 65.0114 8.57717C65.07 8.64308 65.1286 8.70888 65.1884 8.76865C65.2113 8.79156 65.234 8.80019 65.2657 8.81223C65.2848 8.8195 65.3072 8.82801 65.3349 8.84166Z" fill="white"/>
<path d="M60.0687 11.599C59.4468 11.9651 58.8243 12.3307 58.2392 12.66C58.2115 12.6464 58.1891 12.6379 58.17 12.6306C58.1383 12.6186 58.1156 12.6099 58.0927 12.587C58.0329 12.5273 57.9744 12.4615 57.9157 12.3956C57.6511 12.0983 57.3844 11.7986 56.9949 12.0381C56.7761 12.1632 56.7441 12.6079 56.7168 12.9859C56.7121 13.0508 56.7076 13.1137 56.7023 13.1727C56.6751 13.335 56.708 13.5173 56.7418 13.7049C56.7537 13.7708 56.7658 13.8377 56.7753 13.9043C56.446 14.0141 56.1075 14.1147 55.769 14.2153C55.4304 14.3159 55.0919 14.4165 54.7626 14.5262C54.0309 12.7698 54.543 10.7938 55.8971 10.0621C57.3242 9.29367 58.9341 9.84256 60.0687 11.599Z" fill="white"/>
<path fill-rule="evenodd" clip-rule="evenodd" d="M44.3059 29.7866C43.3839 28.6106 41.1412 25.8501 40.407 25.8501C39.5713 25.8501 38.1226 31.41 37.9818 34.3962C37.053 35.8049 36.5639 37.1068 36.3879 37.6318C34.5985 37.6581 32.1258 37.7136 29.8287 37.8305C26.23 38.0132 23.3019 38.8552 21.5728 39.3524C21.2575 39.4431 20.9821 39.5223 20.7498 39.5839C20.6179 39.6189 20.4962 39.6726 20.3841 39.7413C19.2283 39.3075 17.3874 38.0602 16.6676 34.4779C15.5836 29.083 9.37934 27.7335 5.69336 29.8938C6.17107 29.959 6.67114 30.0091 7.17968 30.0601C10.3917 30.382 13.9421 30.7379 14.3357 35.1366C14.7683 39.9704 17.6395 41.2343 18.9685 41.8193C19.054 41.857 19.1331 41.8918 19.2048 41.9246C19.1022 42.4267 19.0802 42.8078 19.0802 42.8078L18.5297 59.1387C18.5154 59.565 18.8499 59.9219 19.2767 59.9306C19.9247 59.9444 20.8417 59.9612 21.4646 59.9643C21.9283 59.9664 22.3429 59.6661 22.4659 59.2188C22.5813 58.7971 22.5961 58.2916 22.1723 57.9888C21.8358 57.7483 21.4442 57.6202 21.098 57.5528C20.686 57.4726 20.493 56.9942 20.7176 56.6398C20.7176 56.6398 24.1861 51.0391 24.3097 51.0131C24.3465 51.0054 24.4302 50.9841 24.5547 50.9525C25.5674 50.6949 29.2972 49.7463 32.8963 49.7463C36.532 49.7463 39.2452 50.3593 40.73 50.6948C40.9641 50.7477 41.1677 50.7937 41.3395 50.8293C42.3944 51.0483 45.4345 57.0963 46.1422 59.4695C46.2372 59.7876 46.5369 59.9995 46.8688 59.9995H49.1164C49.6188 59.9995 50.0467 59.6156 50.0809 59.1142C50.1013 58.8114 50.0232 58.4718 49.6602 58.1246C49.2683 57.7498 48.7422 57.6635 48.2845 57.5885C47.8059 57.5101 47.4022 57.444 47.3053 57.0728C46.5519 54.1895 46.5031 49.4251 46.4767 46.8426C46.4728 46.4708 46.4695 46.1441 46.4646 45.8749C46.4979 45.8755 46.5313 45.8759 46.5648 45.8761C52.9324 45.9103 56.7379 37.9869 56.7379 37.9869C56.7379 37.9869 56.2695 36.3538 55.0773 34.5251C55.0037 31.5735 53.6916 25.8516 52.8432 25.8516C52.105 25.8516 49.7131 28.6448 48.7491 29.808C48.0507 29.6459 47.2975 29.5554 46.4862 29.5554C45.706 29.5554 44.9803 29.638 44.3059 29.7866ZM43.1556 35.6205C41.2751 35.5787 41.5258 37.5429 41.5258 37.5429C41.5258 37.5429 41.7305 38.9123 43.1234 38.9399C42.8405 38.7224 42.6445 38.2818 42.6445 37.7671C42.6445 37.0385 43.0335 36.4477 43.5135 36.4477C43.9935 36.4477 44.383 37.0385 44.383 37.7671C44.383 38.2292 44.2258 38.6341 43.9894 38.87C44.6581 38.7288 44.7588 38.42 44.8055 38.2765L44.8063 38.2741C44.8671 38.0862 45.0361 35.6624 43.1556 35.6205ZM49.503 35.6205C51.3835 35.5787 51.1328 37.5429 51.1328 37.5429C51.1328 37.5429 50.928 38.9123 49.5351 38.9399C49.818 38.7224 50.0141 38.2818 50.0141 37.7671C50.0141 37.0385 49.625 36.4477 49.145 36.4477C48.6651 36.4477 48.2755 37.0385 48.2755 37.7671C48.2755 38.2292 48.4328 38.6341 48.6692 38.87C48.0005 38.7288 47.8998 38.42 47.853 38.2765L47.8522 38.2741C47.7915 38.0862 47.6224 35.6624 49.503 35.6205ZM47.3275 40.1942C47.3275 40.3081 46.7342 40.9979 46.5239 40.9979C46.314 40.9979 45.7207 40.2912 45.7207 40.1942C45.7207 40.137 45.8636 40.154 46.0614 40.1776C46.1989 40.194 46.3629 40.2136 46.5239 40.2136C46.6834 40.2136 46.8458 40.1917 46.9825 40.1732C47.1826 40.1462 47.3275 40.1266 47.3275 40.1942Z" fill="white"/>
<path d="M132.015 28.6151C132.646 27.963 133.436 27.6357 134.388 27.6357C135.361 27.6357 136.158 27.963 136.778 28.6151C137.397 29.2676 137.707 30.0703 137.707 31.0215C137.707 31.9727 137.397 32.7749 136.778 33.4274C136.158 34.0805 135.361 34.4067 134.388 34.4067C133.436 34.4067 132.646 34.0805 132.015 33.4274C131.384 32.7749 131.069 31.9727 131.069 31.0215C131.069 30.0703 131.384 29.2676 132.015 28.6151Z" fill="#282828"/>
<path d="M128.049 52.2624H121.544V27.9683H128.049V52.2624Z" fill="#282828"/>
<path d="M85.2506 39.9755L77.5028 28.6316H72.6904V52.2619H79.2618V41.1253L83.1122 46.6862H87.3598L91.2097 41.1636V52.2619H97.7816V28.6316H92.9687L85.2506 39.9755Z" fill="#282828"/>
<path fill-rule="evenodd" clip-rule="evenodd" d="M110.741 36.0826C111.243 36.2817 111.686 36.536 112.086 36.8331V35.933H118.424V52.2618H112.086V51.3621C111.686 51.6598 111.243 51.9136 110.741 52.1122C109.934 52.4328 109.054 52.5942 108.103 52.5942C106.576 52.5942 105.226 52.2286 104.054 51.4984C102.881 50.7683 101.963 49.768 101.299 48.4946C100.636 47.2227 100.304 45.7568 100.304 44.0974C100.304 42.4379 100.636 40.9669 101.299 39.6838C101.963 38.4007 102.881 37.3994 104.054 36.68C105.226 35.961 106.576 35.6011 108.103 35.6011C109.054 35.6011 109.934 35.7619 110.741 36.0826ZM108.169 46.5201C108.589 46.7642 109.054 46.8852 109.563 46.8852C110.382 46.8852 111.04 46.6253 111.538 46.1055C112.036 45.5858 112.285 44.9164 112.285 44.0974C112.285 43.5449 112.174 43.0634 111.953 42.6539C111.731 42.2444 111.416 41.9182 111.007 41.6746C110.597 41.4316 110.128 41.3095 109.597 41.3095C109.066 41.3095 108.595 41.4316 108.186 41.6746C107.776 41.9182 107.45 42.2506 107.207 42.6703C106.963 43.091 106.842 43.5664 106.842 44.0974C106.842 44.6284 106.958 45.1048 107.19 45.5245C107.422 45.9452 107.749 46.2771 108.169 46.5201Z" fill="#282828"/>
<path d="M131.136 52.2622H137.641V35.9333H131.136V52.2622Z" fill="#282828"/>
<path d="M150.518 46.6863C150.141 46.864 149.666 46.9518 149.09 46.9518C148.581 46.9518 148.105 46.8303 147.663 46.5867C147.22 46.3432 146.867 46.0057 146.601 45.5742C146.336 45.1433 146.203 44.6398 146.203 44.0644C146.203 43.489 146.336 42.9916 146.601 42.5704C146.867 42.1507 147.215 41.8244 147.647 41.5916C148.078 41.3593 148.559 41.2434 149.09 41.2434C149.599 41.2434 150.031 41.3097 150.384 41.442C150.739 41.5752 151.059 41.7744 151.347 42.0399L155.429 37.9577C154.544 37.1397 153.587 36.5306 152.559 36.1323C151.53 35.734 150.373 35.5349 149.09 35.5349C147.298 35.5349 145.689 35.9056 144.261 36.647C142.834 37.3884 141.706 38.4055 140.876 39.6998C140.046 40.9947 139.632 42.4713 139.632 44.1308C139.632 45.7683 140.04 47.2337 140.86 48.528C141.678 49.8229 142.795 50.8349 144.211 51.565C145.627 52.2952 147.22 52.6603 148.991 52.6603C150.362 52.6603 151.569 52.4443 152.609 52.0133C153.648 51.5819 154.644 50.9237 155.595 50.0378L151.513 45.9562C151.225 46.2666 150.894 46.5091 150.518 46.6863Z" fill="#282828"/>
<path fill-rule="evenodd" clip-rule="evenodd" d="M172.572 39.4841C171.83 38.2454 170.807 37.2773 169.502 36.5803C168.196 35.8834 166.692 35.5352 164.988 35.5352C163.262 35.5352 161.713 35.9053 160.342 36.6472C158.969 37.3886 157.891 38.4006 157.106 39.6837C156.32 40.9674 155.928 42.4379 155.928 44.0973C155.928 45.7792 156.331 47.2671 157.139 48.562C157.947 49.8558 159.069 50.8627 160.508 51.5821C161.946 52.3005 163.616 52.6605 165.519 52.6605C167.001 52.6605 168.318 52.4282 169.469 51.9635C170.619 51.4989 171.604 50.8014 172.423 49.8727L169.17 46.6528C168.683 47.2063 168.146 47.6102 167.56 47.8645C166.974 48.1188 166.293 48.2459 165.519 48.2459C164.723 48.2459 164.059 48.0917 163.528 47.7813C162.997 47.4724 162.593 47.0128 162.317 46.4042C162.289 46.3443 162.266 46.2792 162.244 46.2141L162.226 46.1637L162.214 46.1315L173.418 46.0555C173.528 45.5694 173.6 45.143 173.634 44.7779C173.667 44.4134 173.683 44.0646 173.683 43.7328C173.683 42.1392 173.313 40.7238 172.572 39.4841ZM163.395 40.4471C163.881 40.1152 164.457 39.9487 165.121 39.9487C165.762 39.9487 166.293 40.0932 166.714 40.3807C167.134 40.6687 167.449 41.0945 167.66 41.6582C167.711 41.7956 167.755 41.9431 167.794 42.0989L162.191 42.1443L162.204 42.1065L162.217 42.064C162.238 41.9995 162.258 41.9342 162.283 41.8742C162.537 41.2548 162.908 40.7785 163.395 40.4471Z" fill="#282828"/>
<path fill-rule="evenodd" clip-rule="evenodd" d="M225.44 29.5445C224.212 28.9364 222.835 28.6316 221.308 28.6316H210.355V52.2619H216.993V43.9648H221.308C222.835 43.9648 224.212 43.6615 225.44 43.0523C226.668 42.4442 227.641 41.5644 228.361 40.4136C229.079 39.2632 229.439 37.8917 229.439 36.2987C229.439 34.6837 229.079 33.3061 228.361 32.1664C227.641 31.0268 226.668 30.1532 225.44 29.5445ZM222.469 37.9081C222.204 38.3395 221.856 38.6607 221.424 38.8706C220.993 39.0809 220.522 39.1856 220.013 39.1856H216.993V33.4108H220.013C220.522 33.4108 220.993 33.5159 221.424 33.7263C221.856 33.9367 222.204 34.2573 222.469 34.6883C222.735 35.1202 222.868 35.6569 222.868 36.2987C222.868 36.94 222.735 37.4766 222.469 37.9081Z" fill="#282828"/>
<path fill-rule="evenodd" clip-rule="evenodd" d="M244.042 36.647C242.648 35.9056 241.055 35.5349 239.263 35.5349C237.47 35.5349 235.872 35.9056 234.467 36.647C233.061 37.3884 231.961 38.4009 231.165 39.6835C230.368 40.9671 229.97 42.4274 229.97 44.0649C229.97 45.7024 230.373 47.1729 231.181 48.4785C231.989 49.7846 233.095 50.8078 234.5 51.5487C235.905 52.2896 237.504 52.6608 239.296 52.6608C241.088 52.6608 242.681 52.2896 244.075 51.5487C245.469 50.8078 246.564 49.7846 247.361 48.4785C248.157 47.1729 248.555 45.7024 248.555 44.0649C248.555 42.4274 248.152 40.9671 247.344 39.6835C246.536 38.4009 245.436 37.3884 244.042 36.647ZM241.652 45.6079C241.431 46.0394 241.116 46.3713 240.706 46.6036C240.297 46.8354 239.815 46.9518 239.263 46.9518C238.732 46.9518 238.261 46.8354 237.852 46.6036C237.442 46.3713 237.122 46.0394 236.89 45.6079C236.658 45.176 236.541 44.6838 236.541 44.1308C236.541 43.5553 236.658 43.0524 236.89 42.6204C237.122 42.1895 237.442 41.8525 237.852 41.6084C238.261 41.3649 238.732 41.2434 239.263 41.2434C239.815 41.2434 240.291 41.3598 240.69 41.5921C241.088 41.8244 241.403 42.1558 241.636 42.5878C241.868 43.0192 241.984 43.5227 241.984 44.0976C241.984 44.6735 241.873 45.176 241.652 45.6079Z" fill="#282828"/>
<path d="M273.961 36.431C272.953 35.8781 271.798 35.6013 270.492 35.6013C269.099 35.6013 267.859 35.8949 266.776 36.4811C266.292 36.742 265.864 37.0621 265.475 37.4247C265.101 37.0259 264.68 36.6802 264.203 36.3978C263.307 35.8668 262.306 35.6013 261.2 35.6013C259.938 35.6013 258.81 35.8561 257.814 36.3647C257.557 36.4964 257.314 36.644 257.084 36.8053V35.9327H250.579V52.262H257.084V42.9028C257.084 42.5265 257.156 42.2059 257.3 41.9404C257.444 41.6748 257.653 41.4706 257.93 41.3261C258.207 41.1826 258.522 41.1106 258.876 41.1106C259.385 41.1106 259.806 41.271 260.138 41.5916C260.469 41.9128 260.635 42.3498 260.635 42.9028V52.262H267.141V42.9028C267.141 42.5265 267.212 42.2059 267.356 41.9404C267.5 41.6748 267.71 41.4706 267.987 41.3261C268.263 41.1826 268.579 41.1106 268.932 41.1106C269.441 41.1106 269.862 41.271 270.194 41.5916C270.525 41.9128 270.692 42.3498 270.692 42.9028V52.262H277.196V42.5704C277.196 41.1106 276.908 39.8607 276.334 38.8206C275.758 37.781 274.967 36.9845 273.961 36.431Z" fill="#282828"/>
<path d="M303.333 36.431C302.325 35.8781 301.17 35.6013 299.864 35.6013C298.471 35.6013 297.231 35.8949 296.148 36.4811C295.664 36.742 295.236 37.0621 294.847 37.4247C294.474 37.0259 294.052 36.6802 293.575 36.3978C292.679 35.8668 291.678 35.6013 290.572 35.6013C289.31 35.6013 288.182 35.8561 287.186 36.3647C286.929 36.4964 286.686 36.644 286.456 36.8053V35.9327H279.951V52.262H286.456V42.9028C286.456 42.5265 286.528 42.2059 286.672 41.9404C286.816 41.6748 287.026 41.4706 287.302 41.3261C287.579 41.1826 287.895 41.1106 288.248 41.1106C288.757 41.1106 289.178 41.271 289.51 41.5916C289.841 41.9128 290.007 42.3498 290.007 42.9028V52.262H296.513V42.9028C296.513 42.5265 296.584 42.2059 296.728 41.9404C296.872 41.6748 297.082 41.4706 297.359 41.3261C297.635 41.1826 297.951 41.1106 298.305 41.1106C298.813 41.1106 299.234 41.271 299.566 41.5916C299.898 41.9128 300.064 42.3498 300.064 42.9028V52.262H306.568V42.5704C306.568 41.1106 306.281 39.8607 305.706 38.8206C305.13 37.781 304.339 36.9845 303.333 36.431Z" fill="#282828"/>
<path fill-rule="evenodd" clip-rule="evenodd" d="M324.872 39.4841C324.13 38.2454 323.107 37.2773 321.802 36.5803C320.496 35.8834 318.991 35.5352 317.288 35.5352C315.562 35.5352 314.013 35.9053 312.642 36.6472C311.269 37.3886 310.191 38.4006 309.406 39.6837C308.62 40.9674 308.228 42.4379 308.228 44.0973C308.228 45.7792 308.631 47.2671 309.439 48.562C310.246 49.8558 311.369 50.8627 312.808 51.5821C314.245 52.3005 315.916 52.6605 317.819 52.6605C319.301 52.6605 320.618 52.4282 321.769 51.9635C322.918 51.4989 323.903 50.8014 324.722 49.8727L321.47 46.6528C320.983 47.2063 320.446 47.6102 319.86 47.8645C319.274 48.1188 318.593 48.2459 317.819 48.2459C317.023 48.2459 316.359 48.0917 315.828 47.7813C315.297 47.4724 314.893 47.0128 314.617 46.4042C314.589 46.3443 314.566 46.2791 314.543 46.214L314.528 46.169L314.514 46.1315L325.718 46.0555C325.828 45.5694 325.9 45.143 325.934 44.7779C325.967 44.4134 325.983 44.0646 325.983 43.7328C325.983 42.1392 325.613 40.7238 324.872 39.4841ZM315.695 40.4471C316.181 40.1152 316.757 39.9487 317.421 39.9487C318.062 39.9487 318.593 40.0932 319.014 40.3807C319.434 40.6687 319.749 41.0945 319.96 41.6582C320.011 41.7956 320.055 41.9431 320.094 42.0989L314.491 42.1443C314.5 42.1176 314.508 42.0905 314.517 42.0634C314.538 41.999 314.558 41.9342 314.583 41.8742C314.837 41.2548 315.208 40.7785 315.695 40.4471Z" fill="#282828"/>
</g>
<defs>
<clipPath id="clip0_1_2196">
<rect width="325.983" height="59.9996" fill="white"/>
</clipPath>
</defs>
</svg>
