<svg width="256" height="79" viewBox="0 0 256 79" fill="none" xmlns="http://www.w3.org/2000/svg">
<g clip-path="url(#clip0_4602_9737)">
<path d="M120.424 19.0713V3.88794C120.424 1.74929 121.45 0.389282 123.999 0.389282H133.809V4.1371H124.471V9.02172H133.171V12.7384H124.471V19.0661H120.424V19.0713Z" fill="white"/>
<path d="M137.079 19.0713V0.389282H144.256C148.469 0.389282 151.707 2.36182 151.707 6.32765C151.707 8.88156 150.21 10.8541 147.826 11.4926C149.018 12.157 149.712 13.434 150.681 15.3805L152.48 19.0713H148.101L146.437 15.7387C145.577 14.0205 144.774 13.1017 142.67 13.1017H141.09L141.058 19.0713H137.068H137.079ZM141.126 4.1371L141.1 9.49409H144.256C146.168 9.49409 147.551 8.49225 147.551 6.74292C147.551 4.99359 146.137 4.13191 144.308 4.13191H141.121L141.126 4.1371Z" fill="white"/>
<path d="M159.351 3.02633C159.988 0.996695 161.651 0.026001 163.398 0.026001C165.144 0.026001 166.833 0.996695 167.471 3.02633L172.404 19.0713H168.274L167.191 15.2405L159.625 15.2664L158.542 19.0713H154.412L159.345 3.02633H159.351ZM160.682 11.6328H166.139L164.035 4.22023C163.926 3.83092 163.755 3.66481 163.424 3.66481C163.118 3.66481 162.926 3.83092 162.812 4.22023L160.682 11.6328Z" fill="white"/>
<path d="M175.394 19.0713V2.94323C175.394 1.08489 176.752 0 178.275 0C179.493 0 180.462 0.441225 181.073 1.46902L188.442 14.1296V0.389316H192.266V16.5174C192.266 18.3757 190.909 19.4295 189.437 19.4295C188.245 19.4295 187.219 19.0142 186.613 17.9864L179.244 5.24279V19.0661H175.389L175.394 19.0713Z" fill="white"/>
<path d="M195.567 9.74333C195.567 4.32924 199.806 0.026001 205.237 0.026001C208.481 0.026001 211.585 1.74937 212.968 4.66146L209.673 6.51979C208.761 4.91062 207.315 3.88282 205.071 3.88282C201.967 3.88282 199.718 6.35368 199.718 9.73814C199.718 13.1226 201.936 15.5935 205.071 15.5935C207.315 15.5935 208.813 14.5657 209.673 12.9565L212.968 14.8148C211.585 17.7321 208.481 19.4503 205.237 19.4503C199.806 19.4503 195.567 15.147 195.567 9.73295" fill="white"/>
<path d="M219.146 19.0713C216.57 19.0713 215.57 17.7372 215.57 15.6038V3.88794C215.57 1.74929 216.57 0.389282 219.146 0.389282H229.012V4.02809H219.617V7.91606H228.432V11.5497H219.617V15.4376H229.178V19.0713H219.146Z" fill="white"/>
<path d="M123.999 47.9586C121.424 47.9586 120.424 46.6245 120.424 44.4911V32.7753C120.424 30.6366 121.424 29.2766 123.999 29.2766H133.866V32.9154H124.471V36.8034H133.285V40.437H124.471V44.325H134.032V47.9638H123.999V47.9586Z" fill="white"/>
<path d="M136.799 47.9584L139.322 31.8874C139.654 29.9408 141.012 28.9182 142.898 28.9182C144.561 28.9182 145.976 29.6397 146.417 31.4462L149.546 43.1049C149.546 43.1879 149.578 43.1879 149.578 43.1879C149.603 43.1879 149.635 43.1879 149.635 43.1049L152.713 31.5292C153.184 29.7228 154.625 28.9182 156.314 28.9182C158.174 28.9182 159.501 29.972 159.776 31.9705L162.077 47.9584H157.978L156.174 33.3045C156.174 33.1644 156.148 33.0813 156.034 33.0813C155.951 33.0813 155.894 33.1384 155.869 33.2474L152.407 45.6277C152.018 47.0448 150.909 47.7352 149.583 47.7352C148.256 47.7352 147.116 47.0707 146.785 45.7107L143.323 33.2474C143.292 33.1073 143.24 33.0813 143.183 33.0813C143.1 33.0813 143.017 33.1384 143.017 33.2734L140.913 47.9584H136.809H136.799Z" fill="white"/>
<path d="M165.866 47.9585V29.2765H172.431C177.722 29.2765 180.966 31.7473 180.966 36.0765C180.966 40.4057 177.779 43.0167 172.654 43.0167H169.907V47.9273L165.86 47.9533L165.866 47.9585ZM169.913 33.0243V39.2689H172.545C175.203 39.2689 176.81 38.2411 176.81 36.0765C176.81 34.021 175.203 33.0243 172.545 33.0243H169.913Z" fill="white"/>
<path d="M188.281 44.2159H196.982V47.9637H187.81C185.234 47.9637 184.234 46.6297 184.234 44.4962V29.2817H188.281V44.2159Z" fill="white"/>
<path d="M198.227 38.6357C198.227 33.1386 202.414 28.9443 207.927 28.9443C213.441 28.9443 217.654 33.1386 217.654 38.6357C217.654 44.1329 213.441 48.3219 207.927 48.3219C202.414 48.3219 198.227 44.1588 198.227 38.6357ZM213.467 38.6357C213.467 35.3343 211.057 32.7804 207.927 32.7804C204.797 32.7804 202.383 35.3343 202.383 38.6357C202.383 41.9371 204.823 44.491 207.927 44.491C211.031 44.491 213.467 41.9371 213.467 38.6357Z" fill="white"/>
<path d="M225.131 29.2766H221.084V47.9586H225.131V29.2766Z" fill="white"/>
<path d="M127.295 76.8509H120.424V58.1689H127.378C133.42 58.1689 137.436 61.8908 137.436 67.5229C137.436 73.155 133.171 76.8509 127.295 76.8509ZM127.378 61.9168H124.466V73.2121H127.295C130.788 73.2121 133.28 71.0216 133.28 67.5229C133.28 64.0243 130.897 61.9168 127.378 61.9168Z" fill="white"/>
<path d="M139.649 67.523C139.649 62.0258 143.836 57.8368 149.35 57.8368C154.864 57.8368 159.077 62.031 159.077 67.523C159.077 73.0149 154.864 77.2143 149.35 77.2143C143.836 77.2143 139.649 73.0513 139.649 67.523ZM154.89 67.523C154.89 64.2216 152.48 61.6677 149.35 61.6677C146.22 61.6677 143.805 64.2216 143.805 67.523C143.805 70.8244 146.246 73.3783 149.35 73.3783C152.454 73.3783 154.89 70.8244 154.89 67.523Z" fill="white"/>
<path d="M161.32 76.8512L163.844 60.7802C164.176 58.8388 165.533 57.811 167.419 57.811C169.083 57.811 170.498 58.5326 170.938 60.339L174.068 71.9977C174.068 72.0808 174.099 72.0808 174.099 72.0808C174.125 72.0808 174.156 72.0808 174.156 71.9977L177.234 60.422C177.706 58.6156 179.146 57.811 180.836 57.811C182.696 57.811 184.023 58.8648 184.297 60.8633L186.598 76.8512H182.499L180.696 62.1921C180.696 62.052 180.67 61.9689 180.556 61.9689C180.473 61.9689 180.416 62.026 180.39 62.135L176.928 74.5153C176.54 75.9324 175.431 76.628 174.104 76.628C172.778 76.628 171.638 75.9635 171.306 74.6035L167.844 62.1402C167.813 62.0001 167.762 61.9741 167.705 61.9741C167.622 61.9741 167.539 62.0312 167.539 62.1662L165.435 76.8512H161.331H161.32Z" fill="white"/>
<path d="M194.433 58.1689H190.386V76.8509H194.433V58.1689Z" fill="white"/>
<path d="M197.864 67.5231C197.864 62.109 202.103 57.8058 207.534 57.8058C210.778 57.8058 213.882 59.5292 215.265 62.4412L211.97 64.2996C211.058 62.6904 209.612 61.6626 207.368 61.6626C204.264 61.6626 202.02 64.1335 202.02 67.5179C202.02 70.9024 204.238 73.3732 207.368 73.3732C209.612 73.3732 211.109 72.3454 211.97 70.7363L215.265 72.5946C213.882 75.5119 210.778 77.2301 207.534 77.2301C202.103 77.2301 197.864 72.9268 197.864 67.5127" fill="white"/>
<path d="M222.193 58.1689H218.146V76.8509H222.193V58.1689Z" fill="white"/>
<path d="M231.199 73.1032H239.9V76.851H230.728C228.152 76.851 227.152 75.5169 227.152 73.3783V58.1638H231.199V73.098V73.1032Z" fill="white"/>
<path d="M245.968 76.8509C243.393 76.8509 242.393 75.5168 242.393 73.3782V61.6623C242.393 59.5237 243.393 58.1637 245.968 58.1637H255.835V61.8025H246.44V65.6905H255.254V69.3293H246.44V73.2172H256V76.8561H245.968V76.8509Z" fill="white"/>
<path d="M58.9715 20.7376C64.6768 20.7376 69.3199 16.0865 69.3199 10.3662C69.3199 4.64584 64.6768 0 58.9715 0C53.2661 0 48.623 4.65103 48.623 10.3662C48.623 16.0813 53.2661 20.7376 58.9715 20.7376ZM58.9715 4.64065C62.1221 4.64065 64.6872 7.21013 64.6872 10.3662C64.6872 13.5222 62.1221 16.0917 58.9715 16.0917C55.8208 16.0917 53.2557 13.5222 53.2557 10.3662C53.2557 7.21013 55.8208 4.64065 58.9715 4.64065Z" fill="white"/>
<path d="M58.9713 28.7886C52.3073 28.7886 46.0008 30.9843 40.8447 35.0228C42.1609 35.9312 43.3891 36.9486 44.5291 38.0595C48.7161 35.0592 53.7116 33.4344 58.9713 33.4344C72.6983 33.4344 83.8655 44.6208 83.8655 58.3714C83.8655 64.8081 82.1762 71.141 78.9737 76.6796L82.9846 79.0051C86.5912 72.7605 88.4982 65.6282 88.4982 58.3714C88.4982 42.0617 75.2531 28.7938 58.9713 28.7938" fill="white"/>
<path d="M24.8217 33.5071C11.1309 33.5071 0 44.6571 0 58.3662H4.63787C4.63787 47.2162 13.6908 38.1477 24.8217 38.1477C35.9526 38.1477 45.0055 47.2162 45.0055 58.3662C45.0055 61.3821 42.5544 63.8374 39.5437 63.8374C36.5329 63.8374 34.0819 61.3821 34.0819 58.3662C34.0819 54.2862 35.0613 50.3463 36.9009 46.8217C35.8178 45.6849 34.5793 44.6986 33.2165 43.9044C30.7602 48.2751 29.4492 53.2272 29.4492 58.3662C29.4492 63.9412 33.9782 68.4832 39.5437 68.4832C45.1091 68.4832 49.6382 63.9464 49.6382 58.3662C49.6382 44.6571 38.5073 33.5071 24.8165 33.5071" fill="white"/>
<path d="M24.822 27.4495C30.5274 27.4495 35.1704 22.7985 35.1704 17.0781C35.1704 11.3578 30.5274 6.71191 24.822 6.71191C19.1167 6.71191 14.4736 11.3629 14.4736 17.0781C14.4736 22.7933 19.1167 27.4495 24.822 27.4495ZM24.822 11.3526C27.9727 11.3526 30.5378 13.922 30.5378 17.0781C30.5378 20.2342 27.9727 22.8036 24.822 22.8036C21.6714 22.8036 19.1063 20.2342 19.1063 17.0781C19.1063 13.922 21.6714 11.3526 24.822 11.3526Z" fill="white"/>
</g>
<defs>
<clipPath id="clip0_4602_9737">
<rect width="256" height="79" fill="white"/>
</clipPath>
</defs>
</svg>
