<?xml version="1.0" encoding="utf-8"?>
<!-- Generator: Adobe Illustrator 19.0.0, SVG Export Plug-In . SVG Version: 6.00 Build 0)  -->
<svg version="1.1" xmlns="http://www.w3.org/2000/svg" xmlns:xlink="http://www.w3.org/1999/xlink" x="0px" y="0px" width="60px"
	 height="60px" viewBox="0 0 60 60" style="enable-background:new 0 0 60 60;" xml:space="preserve">
<style type="text/css">
	.st0{fill:none;}
	.st1{fill:#525DDC;}
</style>
<g id="Layer_1">
</g>
<g id="Layer_2">
	<g id="XMLID_15_">
		<path id="XMLID_18_" class="st0" d="M0,60h60V0H0V60z M12.6,16.2l10.6,7.4l-4.1-12l10.9-7.7l10.9,7.7l-4.1,12l10.6-7.4l10.9,7.5
			L54.4,36H41.3l10.6,7.5L47.7,56H34.2l0,0l-4-12l-4.1,12H12.5l0,0L8.4,43.5L19,36H5.8l0,0.1L1.7,23.8L12.6,16.2z"/>
		<polygon id="XMLID_19_" class="st0" points="40.8,36.1 36.7,24 23.5,24 19.4,36.1 30.1,43.6 		"/>
		<path id="XMLID_22_" class="st1" d="M5.8,36H19L8.4,43.6l4.2,12.4l0,0.1h13.5l4.1-12l4,11.9l0,0h13.5l4.2-12.5L41.3,36h13.1
			l4.2-12.3l-10.9-7.6L37,23.6l4.1-12L30.1,3.9l-10.9,7.7l4.1,12l-10.6-7.4L1.7,23.8L5.8,36L5.8,36z M23.5,24h13.2l4.1,12.1
			l-10.7,7.5l-10.7-7.5L23.5,24z"/>
	</g>
</g>
</svg>
