<svg width="182" height="84" viewBox="0 0 182 84" fill="none" xmlns="http://www.w3.org/2000/svg"><g clip-path="url(#clip0_903_2724)"><path d="M1.71 59v4.995H0V51.78h4.51c2.286 0 3.826 1.567 3.826 3.615 0 2.047-1.54 3.6-3.827 3.6H1.71V59zm2.483-1.513c1.485 0 2.393-.811 2.393-2.067 0-1.257-.908-2.117-2.393-2.117H1.71v4.189h2.483v-.005zm7.183 1.771l2.272-.327c.506-.07.647-.326.647-.618 0-.811-.542-1.484-1.816-1.484-1.153 0-1.8.707-1.906 1.672l-1.57-.361c.176-1.583 1.625-2.686 3.441-2.686 2.518 0 3.496 1.415 3.496 3.032v4.15c0 .721.07 1.152.105 1.36h-1.61a6.051 6.051 0 01-.085-1.118c-.366.583-1.204 1.38-2.709 1.38-1.71 0-2.813-1.173-2.813-2.483 0-1.479 1.098-2.31 2.548-2.513v-.005zm2.919 1.186v-.38l-2.568.38c-.697.104-1.224.5-1.224 1.242 0 .618.521 1.206 1.364 1.206 1.344 0 2.428-.638 2.428-2.448zm8.471-3.101a5.204 5.204 0 00-.717-.049c-1.38 0-2.307.722-2.307 2.552v4.15h-1.64V55.71h1.61v1.45c.611-1.276 1.66-1.588 2.518-1.588.225 0 .456.035.541.054v1.721l-.005-.005zm4.003-1.631h1.815v1.463H26.77v4.308c0 .757.316 1.137 1.168 1.137.211 0 .507-.034.647-.069v1.38c-.14.05-.556.153-1.118.153-1.435 0-2.342-.86-2.342-2.359v-4.55H23.52v-1.463h.456c.908 0 1.294-.554 1.294-1.277V53.09h1.505v2.621h-.005zm4.424-4.308c.662 0 1.188.52 1.188 1.172 0 .653-.526 1.152-1.188 1.152-.663 0-1.17-.519-1.17-1.152 0-.633.528-1.172 1.17-1.172zm-.803 12.591v-8.283h1.625v8.283H30.39zm5.01-4.154c0 1.894 1.205 2.913 2.569 2.913 1.57 0 2.147-1.053 2.342-1.706l1.45.618c-.402 1.187-1.61 2.582-3.792 2.582-2.448 0-4.243-1.895-4.243-4.412s1.835-4.392 4.228-4.392c2.237 0 3.39 1.38 3.736 2.636l-1.484.619c-.21-.811-.823-1.756-2.252-1.756-1.33 0-2.548.964-2.548 2.893l-.005.005zm10.87 4.411c-1.956 0-3.145-1.448-3.145-3.323v-5.218h1.64v4.98c0 1.138.527 2.137 1.906 2.137 1.38 0 1.991-.86 1.991-2.117v-4.994h1.64v6.75c0 .653.05 1.242.086 1.533h-1.575a7.162 7.162 0 01-.07-.999c-.457.86-1.505 1.256-2.483 1.256l.01-.005zm6.45-.257V51.523h1.64v12.472h-1.64zm4.86-12.591c.662 0 1.189.52 1.189 1.172 0 .653-.527 1.152-1.189 1.152s-1.168-.519-1.168-1.152c0-.633.526-1.172 1.168-1.172zm-.802 12.591v-8.283h1.625v8.283h-1.625zm11.355-2.359c-.471 1.464-1.815 2.616-3.771 2.616-2.252 0-4.229-1.617-4.229-4.426 0-2.601 1.906-4.377 4.018-4.377 2.588 0 4.038 1.756 4.038 4.343 0 .207-.02.415-.036.519H61.83c.035 1.483 1.118 2.517 2.533 2.517 1.414 0 2.046-.742 2.357-1.672l1.414.485v-.005zM66.473 59c-.035-1.187-.822-2.117-2.307-2.117-1.38 0-2.217 1.049-2.287 2.117h4.594zm8.091-1.657a5.202 5.202 0 00-.718-.049c-1.379 0-2.307.722-2.307 2.552v4.15H69.9V55.71h1.61v1.45c.612-1.276 1.66-1.588 2.518-1.588.226 0 .456.035.542.054v1.721l-.005-.005zm2.061 3.982c.105.86.767 1.548 1.956 1.548.928 0 1.434-.52 1.434-1.103 0-.52-.386-.915-1.083-1.069l-1.434-.311c-1.31-.277-2.097-1.152-2.097-2.325 0-1.414 1.344-2.616 2.99-2.616 2.307 0 3.024 1.48 3.194 2.22l-1.45.535c-.07-.43-.42-1.38-1.745-1.38-.837 0-1.399.534-1.399 1.103 0 .5.316.86.958 1l1.364.29c1.52.327 2.323 1.242 2.323 2.464 0 1.221-.998 2.567-3.075 2.567-2.307 0-3.285-1.464-3.426-2.414l1.485-.52.005.01zm7.845.361c.681 0 1.223.534 1.223 1.206 0 .673-.541 1.187-1.224 1.187-.682 0-1.203-.519-1.203-1.187 0-.667.521-1.206 1.203-1.206zm7.618 2.309V51.78h7.529v1.567h-5.818v3.754h5.276v1.588H93.8v3.739h5.818v1.567h-7.529zm9.335 0v-8.284h1.57v1.103c.526-.915 1.57-1.345 2.553-1.345 1.048 0 2.061.5 2.518 1.568.662-1.187 1.745-1.568 2.813-1.568 1.47 0 2.9.984 2.9 3.15v5.376h-1.626v-5.203c0-1.083-.541-1.894-1.78-1.894-1.154 0-1.941.895-1.941 2.082v5.015h-1.64v-5.203c0-1.068-.527-1.894-1.781-1.894-1.169 0-1.956.86-1.956 2.102v4.995h-1.63zm14.59 3.275V55.711h1.59v1.29c.457-.826 1.45-1.483 2.814-1.483 2.518 0 3.862 1.914 3.862 4.322 0 2.409-1.449 4.377-3.912 4.377-1.294 0-2.272-.604-2.724-1.345v4.391h-1.625l-.005.005zm4.103-10.317c-1.505 0-2.498 1.241-2.498 2.893 0 1.652.998 2.928 2.498 2.928 1.5 0 2.483-1.222 2.483-2.928s-.943-2.893-2.483-2.893zm5.874 7.042V51.523h1.64v12.472h-1.64zm11.952-4.154c0 2.532-1.78 4.411-4.298 4.411s-4.299-1.879-4.299-4.411c0-2.532 1.781-4.392 4.299-4.392 2.518 0 4.298 1.88 4.298 4.392zm-1.675 0c0-1.914-1.224-2.948-2.618-2.948-1.395 0-2.619 1.034-2.619 2.948s1.224 2.962 2.619 2.962c1.394 0 2.618-1.033 2.618-2.962zm3.335 7.616l2.097-4.377-3.616-7.373h1.885l2.619 5.717 2.518-5.718h1.765l-5.467 11.746h-1.801v.005zm15.428-5.821c-.471 1.464-1.815 2.616-3.771 2.616-2.253 0-4.229-1.617-4.229-4.426 0-2.601 1.906-4.377 4.018-4.377 2.588 0 4.037 1.756 4.037 4.343 0 .207-.02.415-.035.519h-6.324c.035 1.483 1.118 2.517 2.533 2.517 1.414 0 2.046-.742 2.357-1.672l1.414.485v-.005zM153.37 59c-.035-1.187-.822-2.117-2.307-2.117-1.379 0-2.217 1.049-2.287 2.117h4.594zm6.225 5.252c-1.956 0-3.145-1.448-3.145-3.323v-5.218h1.64v4.98c0 1.138.527 2.137 1.906 2.137 1.38 0 1.992-.86 1.992-2.117v-4.994h1.64v6.75c0 .653.05 1.242.085 1.533h-1.575a7.182 7.182 0 01-.07-.999c-.457.86-1.505 1.256-2.483 1.256l.01-.005zm11.115-6.909a5.213 5.213 0 00-.718-.049c-1.379 0-2.307.722-2.307 2.552v4.15h-1.64V55.71h1.605v1.45c.612-1.276 1.66-1.588 2.518-1.588.226 0 .456.035.542.054v1.721-.005zm2.061 3.982c.105.86.767 1.548 1.956 1.548.928 0 1.435-.52 1.435-1.103 0-.52-.387-.915-1.084-1.069l-1.434-.311c-1.309-.277-2.097-1.152-2.097-2.325 0-1.414 1.344-2.616 2.989-2.616 2.308 0 3.025 1.48 3.195 2.22l-1.449.535c-.07-.43-.421-1.38-1.746-1.38-.837 0-1.399.534-1.399 1.103 0 .5.316.86.958 1l1.364.29c1.52.327 2.323 1.242 2.323 2.464 0 1.221-.999 2.567-3.075 2.567-2.307 0-3.285-1.464-3.426-2.414l1.485-.52.005.01zm7.845.361c.682 0 1.224.534 1.224 1.206 0 .673-.542 1.187-1.224 1.187-.682 0-1.204-.519-1.204-1.187 0-.667.522-1.206 1.204-1.206zM57.992 74.42c0-4.085 3.074-6.355 6.149-6.355 2.829 0 4.82 1.514 5.452 3.878l-1.59.554c-.471-1.845-1.836-2.879-3.862-2.879-2.252 0-4.404 1.618-4.404 4.807 0 3.19 2.147 4.822 4.404 4.822 2.112 0 3.44-1.256 3.947-2.927l1.52.549c-.662 2.29-2.618 3.926-5.467 3.926-3.195 0-6.15-2.29-6.15-6.375zm14.134-6.478c.662 0 1.188.52 1.188 1.172 0 .653-.526 1.152-1.188 1.152-.662 0-1.169-.52-1.169-1.152 0-.633.527-1.172 1.169-1.172zm-.803 12.591V72.25h1.625v8.284h-1.625zm6.235-8.283h1.816v1.463h-1.816v4.308c0 .757.316 1.137 1.169 1.137.21 0 .506-.034.647-.069v1.38c-.14.05-.557.153-1.119.153-1.434 0-2.342-.86-2.342-2.359v-4.55h-1.61V72.25h.456c.908 0 1.294-.553 1.294-1.275v-1.346h1.505v2.621zm11.431 4.134c0 2.532-1.781 4.411-4.299 4.411-2.518 0-4.298-1.88-4.298-4.411 0-2.532 1.78-4.392 4.298-4.392s4.299 1.88 4.299 4.392zm-1.676 0c0-1.914-1.224-2.948-2.618-2.948s-2.618 1.034-2.618 2.948 1.224 2.962 2.618 2.962 2.618-1.033 2.618-2.962zM90.649 84l2.096-4.377-3.616-7.374h1.886l2.618 5.717 2.518-5.717h1.765L92.45 83.995h-1.8V84zm15.428-5.826c-.471 1.464-1.815 2.616-3.772 2.616-2.252 0-4.228-1.617-4.228-4.426 0-2.601 1.906-4.377 4.018-4.377 2.588 0 4.037 1.756 4.037 4.343 0 .207-.02.415-.035.519h-6.325c.036 1.483 1.119 2.517 2.533 2.517 1.415 0 2.042-.742 2.358-1.671l1.414.484v-.005zm-1.66-2.636c-.035-1.187-.823-2.117-2.307-2.117-1.38 0-2.217 1.049-2.287 2.117h4.594zm5.071 5h-1.64v-8.284h1.61v1.187c.612-1.033 1.61-1.429 2.588-1.429 2.011 0 3.004 1.43 3.004 3.274v5.252h-1.64v-4.98c0-1.157-.486-2.087-1.956-2.087-1.294 0-1.956 1.019-1.956 2.275v4.787l-.01.005zm8.491-2.67c.106.86.768 1.547 1.957 1.547.927 0 1.434-.519 1.434-1.102 0-.52-.386-.915-1.083-1.069l-1.435-.311c-1.309-.277-2.096-1.153-2.096-2.325 0-1.414 1.344-2.616 2.989-2.616 2.307 0 3.024 1.479 3.195 2.22l-1.45.535c-.07-.43-.421-1.38-1.745-1.38-.838 0-1.399.534-1.399 1.103 0 .5.316.86.958.999l1.364.292c1.52.326 2.322 1.241 2.322 2.463 0 1.221-.998 2.566-3.075 2.566-2.307 0-3.285-1.464-3.425-2.413l1.484-.52.005.01zm7.845.36c.682 0 1.224.535 1.224 1.207 0 .673-.542 1.187-1.224 1.187-.682 0-1.204-.52-1.204-1.187s.522-1.207 1.204-1.207zM103.87 13.393c-.602-1.885-1.474-3.527-2.618-4.916-1.144-1.395-2.578-2.488-4.303-3.29-1.726-.8-3.712-1.196-5.954-1.196-2.453 0-4.53.514-6.235 1.538s-2.974 2.275-3.802 3.749V4.664h-5.672v41.25h5.798V30.237c.832 1.31 2.076 2.438 3.742 3.383 1.66.944 3.656 1.414 5.983 1.414 2.202 0 4.168-.4 5.894-1.197a12.78 12.78 0 004.393-3.318c1.204-1.414 2.122-3.061 2.744-4.95.622-1.885.933-3.937.933-6.148 0-2.21-.301-4.14-.903-6.023v-.005zM98.162 23.63c-.416 1.29-1.008 2.398-1.775 3.318a8.072 8.072 0 01-2.774 2.152c-1.083.514-2.307.766-3.677.766-1.329 0-2.548-.257-3.646-.766a8.308 8.308 0 01-2.839-2.152c-.787-.92-1.394-2.027-1.805-3.318-.417-1.291-.622-2.695-.622-4.209 0-1.474.205-2.839.622-4.09.416-1.251 1.018-2.334 1.805-3.259a8.664 8.664 0 012.84-2.18c1.097-.535 2.316-.802 3.645-.802 1.37 0 2.609.267 3.712.801a8.026 8.026 0 012.774 2.181c.747.92 1.329 2.008 1.745 3.26.417 1.25.622 2.61.622 4.09 0 1.517-.21 2.917-.622 4.208h-.005zm82.96-13.586c-.582-1.414-1.359-2.581-2.337-3.506a9.552 9.552 0 00-3.335-2.057 11.15 11.15 0 00-3.802-.678c-1.911 0-3.762.4-5.548 1.197-1.785.801-3.285 2.265-4.489 4.397-.832-1.924-2.066-3.339-3.711-4.244a10.806 10.806 0 00-5.272-1.355c-1.745 0-3.461.39-5.141 1.167-1.685.782-3.004 1.988-3.957 3.63V4.66h-5.613v30.494h5.798v-18.75c0-2.21.632-4.015 1.901-5.41 1.269-1.395 2.964-2.092 5.081-2.092 2.247 0 3.867.648 4.865 1.939.998 1.29 1.495 2.898 1.495 4.827v19.49h5.863V16.345c0-2.131.632-3.902 1.901-5.316 1.269-1.415 2.939-2.122 5.021-2.122 2.202 0 3.812.648 4.83 1.939 1.018 1.29 1.53 2.898 1.53 4.826v19.49H182V15.055c0-1.924-.291-3.595-.873-5.01h-.005zM72.241 12.933c-.647-1.904-1.57-3.536-2.773-4.887-1.204-1.35-2.714-2.408-4.52-3.165-1.81-.756-3.857-1.137-6.144-1.137-1.87 0-3.676.38-5.422 1.137a14.044 14.044 0 00-4.584 3.195c-1.31 1.375-2.358 3.012-3.15 4.916-.792 1.904-1.184 4.026-1.184 6.365 0 2.502.407 4.733 1.214 6.701.813 1.968 1.911 3.625 3.306 4.98a14.045 14.045 0 004.83 3.076 15.975 15.975 0 005.738 1.044c1.745 0 3.345-.247 4.8-.737 1.454-.495 2.753-1.157 3.897-1.998a13.17 13.17 0 002.929-2.953c.497-.687.908-1.414 1.254-2.176h-6.27a9.827 9.827 0 01-1.003 1.039c-1.289 1.147-3.16 1.721-5.612 1.721a9.669 9.669 0 01-3.521-.643 8.348 8.348 0 01-2.87-1.845 8.51 8.51 0 01-1.9-2.858c-.457-1.108-.708-2.315-.748-3.625H73.08c.04-.203.07-.47.095-.801.02-.327.03-.678.03-1.044 0-2.295-.32-4.396-.968-6.3l.005-.005zM50.7 16.404c.04-.94.27-1.864.687-2.764.416-.9.968-1.711 1.65-2.429a7.694 7.694 0 012.493-1.72c.978-.43 2.086-.643 3.335-.643 2.659 0 4.675.727 6.05 2.18 1.369 1.454 2.096 3.25 2.181 5.381H50.7v-.005zm84.077-3.471c-.647-1.904-1.57-3.536-2.774-4.887-1.203-1.35-2.713-2.408-4.519-3.165-1.811-.756-3.857-1.137-6.144-1.137-1.871 0-3.677.38-5.422 1.137a14.036 14.036 0 00-4.584 3.195c-1.31 1.375-2.358 3.012-3.15 4.916-.793 1.904-1.184 4.026-1.184 6.365 0 2.502.406 4.733 1.214 6.701.812 1.968 1.911 3.625 3.305 4.98a14.057 14.057 0 004.83 3.076 15.976 15.976 0 005.738 1.044c1.746 0 3.346-.247 4.8-.737 1.455-.495 2.754-1.157 3.897-1.998a13.174 13.174 0 002.93-2.953 12.59 12.59 0 001.254-2.176h-6.27a9.846 9.846 0 01-1.003 1.039c-1.289 1.147-3.16 1.721-5.613 1.721a9.67 9.67 0 01-3.521-.643 8.358 8.358 0 01-2.869-1.845 8.526 8.526 0 01-1.901-2.858c-.456-1.108-.707-2.315-.747-3.625h22.571c.04-.203.07-.47.095-.801.02-.327.03-.678.03-1.044 0-2.295-.321-4.396-.968-6.3l.005-.005zm-21.542 3.471c.04-.94.27-1.864.687-2.764a8.96 8.96 0 011.65-2.429 7.694 7.694 0 012.493-1.72c.978-.43 2.086-.643 3.335-.643 2.658 0 4.675.727 6.049 2.18 1.369 1.454 2.097 3.25 2.182 5.381h-16.396v-.005zM28.98 5.658h13.468V0H23.243v35.158h5.738V20.949h13.467v-5.652H28.98v-9.64z" fill="#333"/><path d="M20.249 15.292H.105v19.866h5.738V20.949H20.25v-5.657z" fill="#4538C8"/></g><defs><clipPath id="clip0_903_2724"><path fill="#fff" d="M0 0h182v84H0z"/></clipPath></defs></svg>